<svg width="850" height="850" viewBox="0 0 850 850" fill="none" xmlns="http://www.w3.org/2000/svg">
<path fill-rule="evenodd" clip-rule="evenodd" d="M168.246 257.147C142.026 258.821 104.401 266.095 83.1291 273.602C46.4061 286.562 19.2521 310.453 14.2161 334.235C9.35312 357.201 25.8121 371.967 56.2461 371.943C67.5671 371.934 74.7461 371.027 74.7461 369.605C74.7461 369.159 71.7091 368.712 67.9961 368.61C59.3651 368.374 49.0931 366.233 43.9131 363.59C38.5861 360.873 33.1131 355.147 31.6741 350.788C27.7311 338.838 35.8331 320.946 52.2031 305.454C72.8861 285.881 107.557 271.476 147.246 265.966C163.743 263.675 193.233 264.365 202.802 267.266C211.581 269.927 214.86 271.732 218.552 275.937C223.084 281.099 224.364 286.27 223.032 294.043C217.787 324.663 172.706 364.19 129.992 375.621C125.452 376.836 121.467 377.56 121.137 377.23C120.316 376.408 137.212 346.374 154.611 317.726C170.227 292.013 173.715 285.826 173.73 283.812C173.749 281.207 170.682 278.844 165.447 277.428C158.61 275.58 159.621 274.365 140.011 308.005C136.164 314.605 130.559 324.505 127.556 330.005C122.136 339.93 111.928 358.028 104.713 370.505L100.954 377.005L95.7731 376.653C91.4671 376.361 90.1821 376.686 88.1691 378.578C85.5451 381.042 84.9981 384.642 86.9961 386.292C87.6841 386.86 89.7051 387.703 91.4881 388.165L94.7301 389.005L85.4001 407.505C70.6761 436.702 64.3991 450.985 65.0861 453.725C66.1041 457.779 76.6021 461.227 80.3551 458.74C80.9641 458.336 83.6101 453.055 86.2341 447.005C94.6691 427.56 102.827 410.243 108.007 400.793L113.056 391.58L119.651 395.196C129.49 400.59 139.118 408.064 153.159 421.207C170.376 437.322 185.565 448.982 195.746 453.899C204.042 457.907 204.498 458.005 214.746 458.005C224.197 458.005 225.752 457.738 230.309 455.333C235.285 452.707 242.746 445.552 242.746 443.407C242.746 442.806 240.833 443.435 238.496 444.805C223.672 453.49 209.913 448.887 181.027 425.581C175.648 421.24 165.897 413.37 159.359 408.09C152.821 402.811 143.715 396.188 139.124 393.373L130.777 388.254L140.668 384.936C166.948 376.119 198.667 355.777 218.896 334.766C234.334 318.732 241.822 304.357 242.04 290.334C242.36 269.785 223.328 258.579 185.746 257.189C179.421 256.955 171.546 256.936 168.246 257.147ZM547.246 258.208C537.438 258.879 519.064 261.642 507.746 264.149C489.89 268.103 478.447 272.057 463.246 279.522C434.839 293.474 417.396 311.087 413.58 329.672C412.047 337.139 413.732 342.763 419.097 348.089C425.228 354.176 432.921 356.826 444.746 356.925C454.89 357.01 461.746 356.016 461.746 354.46C461.746 353.934 458.205 353.505 453.872 353.505C441.791 353.505 434.795 350.31 431.033 343.076C426.152 333.691 437.531 313.612 455.616 299.699C486.103 276.245 518.272 265.571 558.622 265.523C590.916 265.485 605.596 273.1 606.568 290.394C607.215 301.908 602.259 313.215 591.101 325.678C575.344 343.278 550.927 359.41 527.243 367.869C518.49 370.995 507.978 373.709 506.172 373.309C505.241 373.102 506.792 369.919 511.024 363.355C514.446 358.048 521.296 347.268 526.246 339.4C531.196 331.533 537.256 322.15 539.712 318.55C559.377 289.73 559.719 288.767 551.746 284.722C549.269 283.465 545.908 282.566 544.269 282.722C541.111 283.022 537.898 287.775 514.664 326.505C510.21 333.93 502.164 347.205 496.784 356.005L487.003 372.005L480.125 372.067C472.74 372.133 469.44 373.339 467.689 376.611C466.188 379.416 468.734 382.158 473.606 382.981C479.928 384.049 479.957 384.382 474.52 393.512C456.337 424.049 443.683 447.177 443.952 449.385C444.398 453.061 448.906 455.867 454.484 455.941L459.246 456.005L465.303 444.505C475.922 424.347 484.832 408.287 490.959 398.265C496.515 389.178 497.06 388.601 499.08 389.659C504.407 392.448 518.738 404.783 536.441 421.818C564.641 448.955 577.628 457.347 592.873 458.281C601.726 458.823 608.283 457.072 614.638 452.468C618.682 449.539 622.45 444.876 621.523 443.948C621.251 443.677 618.688 444.668 615.828 446.152C605.416 451.554 596.554 450.212 583.064 441.188C576.351 436.699 573.375 434.169 546.009 409.697C538.439 402.927 526.963 393.831 520.505 389.483L508.764 381.577L512.505 380.602C514.563 380.065 518.946 378.937 522.246 378.095C536.12 374.555 559.045 365.725 569.723 359.81C588.824 349.228 608.615 332.186 617.48 318.686C628.652 301.672 628.906 281.999 618.076 272.49C613.877 268.803 605.08 264.288 597.746 262.056C586.564 258.652 564.89 257 547.246 258.208ZM626.746 331.207C621.906 332.962 614.746 342.96 614.746 347.965C614.746 353.275 621.161 356.164 626.412 353.22C630.806 350.756 635.746 342.465 635.746 337.555C635.746 332.498 631.481 329.49 626.746 331.207ZM331.075 334.446C327.118 336.859 322.746 344.154 322.746 348.343C322.746 352.103 325.763 355.505 329.098 355.505C334.78 355.505 342.712 346.476 342.714 340.005C342.716 336.16 341.859 334.879 338.411 333.568C334.777 332.186 334.783 332.185 331.075 334.446ZM272.144 359.9C263.421 363.962 256.746 372.36 256.746 379.272C256.746 383.561 250.119 391.244 238.11 400.875C226.18 410.444 216.649 415.616 209.72 416.282C200.954 417.124 197.403 412.498 199.993 403.61C201.195 399.483 201.516 399.191 205.259 398.819C223.095 397.043 242.746 382.844 242.746 371.732C242.746 367.334 238.561 363.071 232.692 361.491C219.904 358.047 198.849 369.964 187.824 386.885C182.917 394.417 180.746 400.805 180.746 407.714C180.746 416.682 185.595 422.066 196.369 425.061C202.099 426.653 202.965 426.656 209.869 425.103C225.566 421.571 237.018 414.441 252.716 398.427L261.376 389.592L264.561 394.847C270.604 404.818 267.783 413.878 256.454 420.882C252.035 423.614 251.614 423.696 249.91 422.153C247.635 420.094 245.812 420.07 242.969 422.062C237.337 426.006 242.59 431.05 252.202 430.928C264.705 430.769 280.023 422.983 284.515 414.505C288.355 407.257 286.653 401.47 277.211 389.677C275.305 387.297 273.746 384.545 273.746 383.562C273.746 380.842 277.28 376.921 283.382 372.871C290.523 368.131 292.489 365.261 290.781 362.07C288.078 357.02 280.279 356.112 272.144 359.9ZM684.746 360.619C682.958 361.356 680.902 364.406 677.528 371.327C674.932 376.65 670.433 384.155 667.529 388.005C661.096 396.535 649.938 407.734 648.383 407.223C646.537 406.617 646.494 398.79 648.305 393.195C649.23 390.34 652.182 384.127 654.866 379.386C657.55 374.646 659.746 370.044 659.746 369.159C659.746 365.575 648.194 361.624 643.232 363.51C640.306 364.623 636.127 372.817 633.051 383.47C631.421 389.117 630.45 390.478 623.024 397.524C612.837 407.191 603.355 413.256 601.211 411.476C600.405 410.807 599.746 409.279 599.746 408.08C599.746 404.961 606.775 390.853 612.713 382.053C619.757 371.615 620.212 370.158 617.431 366.925C615.805 365.035 613.897 364.164 610.558 363.787L605.937 363.266L600.228 370.985C589.933 384.907 581.746 402.488 581.746 410.676C581.746 413.65 582.505 415.363 585.058 418.148C591.381 425.048 602.501 423.726 615.416 414.539C619.172 411.866 623.483 408.497 624.996 407.052L627.746 404.424V410.563C627.746 416.142 628.03 416.968 630.852 419.604C637.452 425.769 648.442 422.494 663.024 410.017C679.765 395.693 697.746 372.803 697.746 365.817C697.746 361.686 689.833 358.523 684.746 360.619ZM312.171 365.66C309.765 368.379 302.003 380.976 298.741 387.457C292.869 399.12 290.893 412.415 294.307 417.288C299.613 424.865 311.636 424.03 324.759 415.175L330.246 411.472L330.746 414.239C331.116 416.287 332.404 417.589 335.708 419.255C342.564 422.712 344.132 422.317 347.621 416.255C354.671 404.004 372.044 385.505 380.706 381.026C383.674 379.491 383.663 379.53 378.018 390.428C373.192 399.745 372.287 402.347 371.931 407.936C371.626 412.731 371.929 415.135 373.055 416.853C375.169 420.08 380.681 422.505 385.897 422.504C396.5 422.502 414.707 409.336 427.551 392.382C429.029 390.43 428.12 387.505 426.035 387.505C425.211 387.505 420.581 391.057 415.744 395.398C406.42 403.767 396.292 411.113 393.309 411.67C387.817 412.694 389.422 403.95 396.986 391.637C399.227 387.989 402.148 382.64 403.479 379.75C405.568 375.21 405.745 374.031 404.774 371.091C403.565 367.428 398.982 364.505 394.446 364.505C390.164 364.505 379.762 370.637 365.439 381.606L362.631 383.755L365.689 378.934C369.437 373.024 369.539 370.274 366.111 367.577C362.389 364.649 355.994 362.862 353.903 364.165C351.601 365.599 348.368 371.527 344.518 381.374C341.56 388.942 340.479 390.468 333.246 397.297C325.308 404.791 314.611 412.505 312.158 412.505C310.359 412.505 309.471 409.039 310.297 405.233C311.223 400.96 317.599 388.34 323.226 379.642C325.712 375.799 327.746 371.8 327.746 370.754C327.746 367.677 323.319 364.323 318.558 363.794C314.945 363.393 313.91 363.695 312.171 365.66ZM726.953 366.482C711.489 372.046 693.737 387.908 686.206 402.889C679.429 416.374 682.695 424.945 695.085 426.184C703.453 427.022 711.874 423.168 724.77 412.6C728.217 409.775 728.889 409.52 728.72 411.1C728.177 416.167 728.929 418.842 731.669 421.582C734.177 424.09 735.358 424.505 739.988 424.505C747.551 424.505 753.696 422.4 765.246 415.852C793.837 399.645 802.06 396.406 815.246 396.162C826.054 395.961 829.746 397.838 829.746 403.531C829.746 408.308 830.725 408.508 834.157 404.428C837.623 400.31 837.497 396.43 833.76 392.174C829.746 387.602 823.99 386.072 813.464 386.779C799.591 387.71 785.255 393.373 764.913 405.956C759.923 409.042 754.272 412.223 752.353 413.025C749.228 414.33 748.696 414.312 747.234 412.85C746.148 411.764 745.806 410.345 746.211 408.611C747.27 404.086 752.415 394.33 758.795 384.748C763.561 377.592 764.822 374.943 764.353 373.076C763.629 370.19 758.046 367.995 753.661 368.872C751.637 369.277 749.342 368.702 746.101 366.979C740.435 363.967 734.38 363.809 726.953 366.482ZM226.151 371.46C221.46 373.591 209.985 384.004 207.377 388.496L205.509 391.715L207.877 390.997C215.395 388.717 228.422 378.965 231.248 373.502C233.178 369.769 231.422 369.066 226.151 371.46ZM731.713 377.146C718.566 383.701 702.746 401.968 702.746 410.594C702.746 418.721 713.112 411.661 732.895 390.061C740.568 381.683 743.746 377.502 743.54 376.061C743.076 372.815 739.794 373.116 731.713 377.146ZM767.746 451.123C730.024 454.381 689.176 464.323 652.246 479.233C611.174 495.815 592.527 500.458 560.746 502.016C527.992 503.622 495.062 498.937 412.613 480.943C349.85 467.245 335.544 465.185 302.746 465.125C285.697 465.093 275.815 465.558 266.746 466.818C250.447 469.082 219.259 475.456 199.746 480.511C127.112 499.329 89.5721 502.548 53.0691 493.089C44.4501 490.855 30.8781 485.018 23.4971 480.369L17.2461 476.432L23.4541 482.404C33.9761 492.526 51.4351 499.828 75.2461 504.065C87.6151 506.266 123.752 506.617 140.246 504.697C157.007 502.746 201.042 494.929 228.659 489.001C254.523 483.45 281.275 481.107 311.124 481.777C335.638 482.328 350.963 484.067 379.246 489.508C387.496 491.095 404.146 494.251 416.246 496.522C428.346 498.792 446.346 502.18 456.246 504.05C509.232 514.059 560.799 514.957 598.628 506.531C610.916 503.794 636.183 495.311 656.617 487.061C672.811 480.523 679.021 478.454 708.246 469.856C738.016 461.097 768.535 456.241 793.246 456.331C806.714 456.38 821.883 458.086 827.285 460.158C828.493 460.622 828.845 460.474 828.368 459.702C827.377 458.099 816.334 454.835 805.983 453.086C796.879 451.548 775.52 450.451 767.746 451.123ZM274.746 489.078C272.821 489.298 265.621 489.985 258.746 490.606C243.674 491.965 225.858 494.954 199.746 500.502C126.034 516.163 84.1661 517.444 53.4841 504.977C45.6301 501.785 47.3471 503.96 55.6131 507.673C73.7501 515.82 91.4141 518.83 121.246 518.857C145.382 518.879 160.087 517.48 188.352 512.471C228.092 505.43 248.76 502.821 274.674 501.574C310.983 499.828 352.036 503.347 408.28 513.028C442.749 518.96 473.828 523.015 496.842 524.581C517.366 525.978 550.35 525.257 566.246 523.064C591.585 519.569 618.278 511.855 635.72 502.986C646.291 497.612 646.979 496.268 636.968 500.548C618.204 508.571 592.435 514.921 567.932 517.56C551.134 519.369 506.688 518.282 486.246 515.562C467.182 513.025 417.604 504.812 391.746 499.906C356.379 493.196 326.797 489.823 297.187 489.125C286.769 488.879 276.671 488.858 274.746 489.078Z" fill="black"/>
<path fill-rule="evenodd" clip-rule="evenodd" d="M164.246 258.094C99.4651 264.501 57.7081 279.195 32.6811 304.39C16.3991 320.782 10.4121 337.52 15.7401 351.758C20.5981 364.743 35.3181 371.636 57.6561 371.387C74.0551 371.203 76.2601 370.173 63.2461 368.775C48.4211 367.182 43.4321 365.322 37.1561 359.046C28.2261 350.116 27.8751 341.198 35.8271 325.302C39.1501 318.661 41.8011 315.203 49.1121 307.974C63.6381 293.612 81.6021 283.116 105.449 275.057C144.872 261.735 194.365 259.887 213.376 271.028C220.508 275.208 223.162 279.599 223.58 287.912C224.307 302.344 216.084 317.389 197.293 336.005C184.623 348.557 172.23 357.67 157.475 365.284C145.073 371.684 119.746 380.097 119.746 377.816C119.746 376.349 145.872 330.706 156.271 314.005C170.615 290.968 174.154 284.377 173.103 282.656C171.499 280.027 165.551 277.434 161.807 277.731C157.367 278.085 157.54 277.803 111.903 358.859L101.287 377.714L96.9481 377.119C91.4911 376.371 87.2431 378.389 86.2911 382.181C85.5051 385.315 87.5971 387.505 91.3781 387.505C92.6161 387.505 93.9191 387.976 94.2751 388.552C94.6311 389.127 89.0891 401.39 81.9611 415.802C74.8331 430.214 67.9411 444.64 66.6451 447.861L64.2901 453.717L66.6151 455.6C69.9681 458.315 76.2821 460.018 78.8121 458.889C80.2431 458.25 83.1861 452.747 88.2311 441.274C96.9581 421.428 110.522 393.936 112.324 392.44C113.271 391.655 115.651 392.499 121.425 395.668C130.842 400.836 141.338 409.197 156.746 423.802C177.37 443.352 194.133 454.531 207.351 457.549C213.461 458.944 222.792 458.001 228.746 455.386C232.871 453.574 241.746 446.058 241.746 444.377C241.746 443.985 239 445.037 235.645 446.714C230.213 449.428 228.842 449.706 223.155 449.25C210.263 448.215 195.534 439.097 165.246 413.402C154.797 404.537 143.064 395.978 135.173 391.463L129.627 388.29L138.436 385.342C181.784 370.835 228.114 333.818 238.447 305.434C242.368 294.665 242.361 283.901 238.429 277.213C231.047 264.655 214.465 258.683 185.246 258.06C175.896 257.861 166.446 257.876 164.246 258.094ZM534.182 259.976C501.489 263.737 467.852 275.019 446.192 289.488C435.06 296.924 422.128 310.315 417.786 318.901C406.827 340.573 418.612 356.545 445.586 356.576C450.899 356.582 456.596 356.192 458.246 355.709C460.728 354.982 459.66 354.704 452.067 354.098C436.602 352.864 429.746 347.61 429.746 336.991C429.746 321.111 451.814 297.849 481.251 282.702C485.648 280.439 494.007 276.8 499.826 274.615C530.21 263.208 576.241 261.346 594.302 270.793C598.119 272.79 603.446 278.067 605.557 281.944C607.888 286.224 607.629 298.406 605.068 305.005C597.793 323.75 572.543 347.092 544.246 361.23C534.302 366.198 517.001 372.173 509.884 373.097L504.522 373.792L505.791 371.399C508.716 365.884 526.178 338.376 540.924 316.056C549.626 302.884 556.746 291.329 556.746 290.379C556.746 286.925 546.317 281.516 542.603 283.044C541.857 283.351 538.494 288.193 535.131 293.803C531.768 299.414 524.068 312.105 518.019 322.005C511.971 331.905 502.506 347.43 496.986 356.505L486.949 373.005L480.096 372.666C474.272 372.378 472.829 372.652 470.494 374.489C468.983 375.677 467.746 377.282 467.746 378.055C467.746 379.954 471.437 382.139 475.996 382.938C478.059 383.3 479.746 384.086 479.746 384.686C479.746 385.286 475.987 392.128 471.392 399.891C448.029 439.364 443.312 448.21 444.281 450.735C445.859 454.847 457.942 456.993 459.874 453.505C460.331 452.68 465.045 443.905 470.35 434.005C482.989 410.417 495.941 388.505 497.244 388.505C500.64 388.505 512.766 398.59 533.621 418.76C554.926 439.365 564.761 447.328 575.207 452.429C588.263 458.805 595.282 459.539 607.196 455.775C611.793 454.323 621.746 446.53 621.746 444.383C621.746 443.917 619.014 444.924 615.676 446.62C600.837 454.16 588.719 448.944 559.746 422.544C538.999 403.64 528.507 394.968 518.246 388.242C513.296 384.998 509.117 381.994 508.96 381.567C508.803 381.14 513.753 379.542 519.96 378.016C561.969 367.688 598.626 345.439 616.267 319.563C622.786 310 625.158 302.808 625.193 292.505C625.227 282.64 623.341 277.99 617.075 272.489C612.118 268.136 601.125 263.159 591.746 261.021C581.473 258.679 550.364 258.114 534.182 259.976ZM624.537 333.056C621.217 334.858 615.928 342.347 615.119 346.391C614.649 348.739 615.068 349.918 617.089 351.939C620.163 355.013 622.187 355.143 626.452 352.543C629.896 350.443 635.721 341.305 635.737 337.978C635.763 332.36 630.268 329.945 624.537 333.056ZM329.346 336.552C324.845 340.504 322.241 347.048 323.673 350.812C326.498 358.243 335.99 354.976 341.129 344.805C343.276 340.555 343.168 337.927 340.746 335.505C337.805 332.564 333.429 332.966 329.346 336.552ZM273.923 359.458C263.933 364.113 257.746 371.54 257.746 378.874C257.746 382.581 257.081 383.509 247.996 392.484C233.648 406.658 218.237 416.367 208.62 417.291C204.546 417.683 203.541 417.391 201.321 415.171C198.461 412.311 197.904 407.218 199.844 401.654C200.769 399.001 201.449 398.505 204.162 398.505C213.176 398.505 229.533 390.76 236.215 383.328C243.825 374.864 244.186 369.098 237.419 364.095C235.165 362.429 233.139 362.007 227.419 362.016C221.436 362.026 219.116 362.561 213.433 365.243C209.686 367.012 205.411 369.392 203.933 370.533C185.04 385.116 175.829 407.32 184.432 417.544C188.942 422.903 194.196 424.973 203.246 424.954C218.798 424.921 232.871 417.416 250.621 399.688C259.218 391.103 261.219 389.556 262.293 390.666C264.6 393.047 268.746 401.735 268.746 404.186C268.746 408.17 266.132 413.133 261.839 417.299C256.41 422.568 252.443 424.216 249.273 422.519C244.935 420.198 239.864 423.043 241.366 426.957C242.956 431.099 256.647 431.416 266.812 427.545C273.603 424.96 281.209 419.433 283.779 415.219C286.187 411.269 286.334 404.554 284.108 400.205C283.206 398.445 280.797 394.98 278.754 392.505C272.984 385.517 272.421 384.034 274.217 380.561C275.059 378.932 277.886 376.162 280.497 374.405C290.954 367.371 293.216 363.169 288.284 359.938C284.355 357.364 278.814 357.178 273.923 359.458ZM684.093 361.27C683.459 361.674 681.831 364.48 680.476 367.505C676.245 376.945 665.852 391.581 657.066 400.472C649.05 408.584 648.563 408.909 647.19 407.064C644.037 402.826 646.729 392.822 654.943 378.251L660.059 369.177L657.822 367.366C655.393 365.398 649.607 363.519 645.951 363.511C644.688 363.508 642.627 364.533 641.37 365.79C639.31 367.85 637.86 371.196 632.281 386.761C630.983 390.381 628.8 393.113 623.139 398.199C613.795 406.596 604.848 412.622 602.246 412.273C599.286 411.876 599.178 406.715 601.985 399.765C603.282 396.554 607.621 388.9 611.626 382.757C615.632 376.615 618.76 370.83 618.577 369.903C618.159 367.775 614.104 364.799 610.432 363.926C607.993 363.345 607.06 363.856 603.432 367.762C598.328 373.255 590.494 386.27 585.911 396.867C580.133 410.228 581.512 417.722 590.37 421.105C594.573 422.711 595.19 422.711 601.039 421.104C607.726 419.268 615.089 414.873 623.594 407.642L628.941 403.095L628.312 408.55C627.544 415.208 628.923 418.309 633.76 420.802C638.423 423.204 643.515 422.366 651.552 417.871C665.264 410.203 694.249 378.17 697 367.645C697.925 364.103 693.902 360.501 689.041 360.52C686.954 360.529 684.727 360.866 684.093 361.27ZM311.122 367.9C302.513 378.69 292.741 400.713 292.75 409.307C292.758 417.448 299.9 423.322 308.123 421.95C313.018 421.134 320.404 417.581 327.067 412.838C330.989 410.046 331.854 409.742 331.702 411.205C331.282 415.259 331.899 416.628 334.996 418.516C336.784 419.606 339.666 420.499 341.401 420.501C344.115 420.504 344.939 419.841 347.295 415.755C350.777 409.717 359.299 399.048 365.958 392.388C372.404 385.942 383.08 378.007 383.522 379.333C383.704 379.879 381.838 384.079 379.374 388.666C372.053 402.3 370.099 412.593 373.948 417.257C374.662 418.122 377.175 419.685 379.533 420.731C383.241 422.375 384.535 422.483 389.118 421.532C392.031 420.927 397.265 418.761 400.748 416.718C407.853 412.552 422.556 399.167 425.809 393.903C427.895 390.528 427.864 387.505 425.744 387.505C425.158 387.505 420.821 391.138 416.106 395.579C406.787 404.358 394.536 412.812 391.9 412.283C390.615 412.025 390.262 410.841 390.318 406.978C390.38 402.696 391.388 400.278 397.568 389.575C405.626 375.622 406.402 372.07 402.291 367.96C398.772 364.44 392.627 364.622 385.327 368.462C379.713 371.415 369.696 378.576 364.496 383.353C360.819 386.731 361.031 385.443 365.315 378.391C369.617 371.31 369.262 369.097 363.399 366.435C358.427 364.177 354.422 363.985 352.811 365.927C352.162 366.709 349.201 372.672 346.232 379.177C341.396 389.772 340.126 391.664 334.04 397.327C330.303 400.804 323.93 405.877 319.877 408.6C311.036 414.541 309.24 414.127 309.99 406.318C310.53 400.697 314.518 392.242 322.281 380.258C328.476 370.695 328.692 368.563 323.725 365.994C322.141 365.175 319.267 364.505 317.338 364.505C314.55 364.505 313.276 365.2 311.122 367.9ZM725.781 367.542C715.495 371.241 703.213 380.545 694.406 391.309C687.095 400.246 683.768 407.443 683.756 414.354C683.747 419.019 684.131 420.062 686.76 422.518C690.734 426.23 696.181 427.102 703.006 425.118C709.087 423.35 719.468 417.018 724.996 411.704L728.746 408.099V412.786C728.746 416.487 729.325 418.121 731.496 420.551C737.079 426.798 747.084 425.33 764.246 415.743C793.205 399.567 803.543 395.498 815.656 395.511C826.438 395.521 830.746 397.938 830.746 403.974C830.746 406.217 831.007 406.436 832.641 405.561C833.683 405.004 835.035 403.115 835.645 401.363C836.552 398.762 836.435 397.536 835.001 394.655C832.273 389.176 827.044 387.001 816.746 387.06C801.793 387.146 789.449 391.847 763.319 407.404C751.136 414.658 749.051 415.41 746.946 413.305C743.786 410.145 747.772 400.332 759.147 383.268C762.62 378.057 764.734 373.915 764.384 373.003C763.563 370.864 759.024 369.341 754.269 369.609C751.578 369.761 749.087 369.12 746.746 367.674C742.219 364.878 733.344 364.823 725.781 367.542ZM224.746 371.637C218.807 375.241 212.004 381.386 208.17 386.609C206.155 389.353 204.75 391.843 205.048 392.14C206.03 393.123 218.14 386.665 223.966 382.052C234.663 373.582 235.288 365.239 224.746 371.637ZM732.246 376.167C718.327 383.459 704.584 398.582 702.322 409.096C701.838 411.343 702.104 412.557 703.294 413.545C706.313 416.05 712.86 411.192 729.35 394.207C740.887 382.325 744.773 377.701 744.548 376.124C744.089 372.905 738.434 372.925 732.246 376.167ZM757.246 452.569C724.591 455.942 675.91 468.957 645.246 482.513C627.99 490.141 602.953 497.59 584.246 500.661C573.503 502.424 526.542 502.437 513.746 500.679C486.515 496.94 451.012 490.229 415.246 482.061C373.083 472.432 344.552 467.674 315.746 465.468C285.078 463.119 249.513 468.232 190.246 483.511C127.268 499.746 88.6741 502.548 52.4261 493.515C44.4691 491.532 26.7861 483.756 23.5281 480.807C22.5411 479.914 21.4681 479.45 21.1431 479.775C20.1321 480.785 32.8891 489.633 40.2461 493.025C61.8131 502.968 81.4091 506.107 116.185 505.189C145.851 504.406 166.715 501.343 223.246 489.473C253.769 483.064 273.011 481.067 303.246 481.171C325.947 481.249 337.291 482.134 360.246 485.618C364.096 486.202 388.396 490.712 414.246 495.639C488.254 509.746 498.669 511.015 540.246 510.982C565.365 510.963 571.127 510.66 583.304 508.719C605.247 505.221 621.881 500.14 659.246 485.525C674.165 479.69 682.104 477.011 702.246 471.014C749.995 456.799 792.182 452.19 821.429 457.992C828.515 459.398 818.82 456.266 810.246 454.379C799.666 452.051 771.551 451.091 757.246 452.569ZM259.246 490.928C240.692 492.968 227.42 495.231 199.721 501.076C152.675 511.003 132.362 513.688 104.746 513.627C86.2981 513.587 74.4461 512.253 63.3261 508.966C60.6201 508.166 58.2101 507.707 57.9711 507.947C57.2461 508.672 76.7211 514.41 85.7671 516.136C97.0011 518.279 133.707 519.107 149.437 517.571C155.929 516.937 173.042 514.42 187.467 511.977C245.232 502.194 270.801 499.765 304.746 500.835C336.316 501.83 365.868 505.203 411.246 512.989C468.205 522.762 507.111 526.186 541.746 524.476C561.079 523.521 568.295 522.62 586.65 518.873C600.416 516.062 625.256 507.866 633.746 503.333C639.749 500.128 639.317 500.236 626.746 505.076C608.177 512.226 583.891 516.932 556.325 518.722C518.58 521.174 478.143 516.635 389.246 499.971C352.487 493.08 328.808 490.545 296.246 490.015C279.596 489.744 267.238 490.049 259.246 490.928ZM53.7461 506.505C54.5711 507.038 55.6961 507.474 56.2461 507.474C56.7961 507.474 56.5711 507.038 55.7461 506.505C54.9211 505.972 53.7961 505.536 53.2461 505.536C52.6961 505.536 52.9211 505.972 53.7461 506.505Z" fill="black"/>
<path fill-rule="evenodd" clip-rule="evenodd" d="M394.009 85.0869C355.964 86.814 326.336 92.3907 291.62 104.357C263.482 114.056 222.651 136.733 195.666 157.647C177.127 172.016 146.202 204.49 138.884 217.273C137.507 219.677 139.623 218.004 152.954 206.155C223.434 143.504 283.968 112.151 359.709 99.0696C381.218 95.3545 403.526 94.0171 431.357 94.773C466.111 95.7173 493.184 100.036 525.445 109.782C587.334 128.478 644.898 166.37 681.227 212.331C690.321 223.834 693.996 226.318 686.456 215.866C641.435 153.442 576.39 112.048 494.058 93.4286C470.931 88.1994 454.462 86.1751 422.093 84.5849C417.588 84.3638 404.95 84.5896 394.009 85.0869ZM160.245 92.0724C159.876 93.0377 159.241 97.2501 158.834 101.433C157.836 111.699 156.314 117.059 153.74 119.388C152.45 120.556 147.281 121.975 140.818 122.936C134.892 123.816 129.789 124.793 129.475 125.106C129.163 125.419 133.001 126.307 138.006 127.082C156.056 129.872 156.142 129.963 158.761 148.713C159.638 154.989 160.555 160.322 160.798 160.565C161.042 160.81 161.914 155.898 162.736 149.651C164.824 133.783 166.619 130.458 174.018 128.75C182.665 126.754 197.401 126.792 199.079 128.814C199.827 129.715 200.975 133.782 201.63 137.853C202.287 141.922 202.985 145.415 203.184 145.614C203.383 145.813 203.894 142.895 204.32 139.128C205.382 129.751 207.149 127.597 214.669 126.505L220.824 125.612L214.056 124.208C210.333 123.436 206.954 122.472 206.548 122.067C206.142 121.661 205.202 117.774 204.456 113.428L203.102 105.529L202.225 111.964C200.899 121.691 200.552 122.328 195.894 123.615C191.444 124.843 173.077 122.469 168.633 120.09C166.007 118.685 164.47 113.861 162.506 100.848C161.632 95.0562 160.615 91.1071 160.245 92.0724ZM710.214 181.135C703.442 185.394 698.83 189.064 698.819 190.203C698.789 193.287 726.001 260.735 727.509 261.315C728.971 261.875 752.722 248.551 789.268 226.669C792.485 224.743 793.512 223.455 793.034 221.945C792.671 220.805 788.646 213.254 784.087 205.166L775.797 190.461L768.034 187.891C763.764 186.477 757.902 184.31 755.006 183.076C749.628 180.784 725.736 173.979 723.066 173.979C722.254 173.979 716.471 177.2 710.214 181.135ZM723.03 182.823C721.952 185.083 721.071 187.176 721.071 187.475C721.071 188.616 723.568 187.919 730.106 184.955C736.333 182.132 736.636 181.823 733.943 181.049C725.023 178.489 725.102 178.476 723.03 182.823ZM712.444 184.624C706.62 188.28 706.487 189.52 711.784 190.762C714.437 191.385 715.08 190.86 717.328 186.233C718.726 183.355 719.482 181.011 719.008 181.022C718.534 181.034 715.58 182.655 712.444 184.624ZM734.112 187.344C728.734 189.525 723.835 191.809 723.223 192.421C722.219 193.425 736.612 199.194 745.869 201.498C750.518 202.654 770.579 194.828 768.305 192.746C767.748 192.235 764.396 190.892 760.857 189.759C757.317 188.627 752.466 186.72 750.079 185.52C747.691 184.321 745.321 183.35 744.814 183.36C744.305 183.371 739.489 185.163 734.112 187.344ZM705.394 195.447C706.174 197.929 713.555 217.279 718.752 230.46C720.216 234.174 721.596 237.029 721.82 236.807C722.453 236.174 716.522 200.606 715.323 197.842C714.653 196.297 712.453 194.921 709.428 194.153C704.788 192.975 704.634 193.024 705.394 195.447ZM772.062 197.238C771.268 198.523 774.758 207.273 775.693 206.339C776.614 205.417 775.031 197.601 773.764 196.819C773.19 196.464 772.424 196.652 772.062 197.238ZM720.598 207.035C724.291 230.144 728.615 251.151 729.497 250.269C731.106 248.66 744.424 210.303 744.459 207.174C744.472 206.06 722.771 197.381 719.976 197.381C719.469 197.381 719.749 201.725 720.598 207.035ZM760.271 201.912L753.25 205.158L760.241 207.787C764.086 209.233 768.655 210.701 770.392 211.048L773.554 211.68L771.135 205.116C769.805 201.506 768.396 198.577 768.005 198.609C767.613 198.64 764.133 200.128 760.271 201.912ZM779.798 211.237C780.123 215.747 780.602 216.5 784.072 217.952L787.978 219.588L784.794 214.043C780.095 205.864 779.382 205.462 779.798 211.237ZM748.763 208.77C748.009 209.988 734.583 245.859 733.319 250.027C732.494 252.747 732.584 252.829 734.652 251.239C735.871 250.302 741.344 245.553 746.815 240.688C752.285 235.822 760.316 228.762 764.66 224.999C769.003 221.236 772.558 217.766 772.558 217.286C772.558 216.807 768.215 214.816 762.904 212.862C757.594 210.908 752.382 208.958 751.321 208.53C750.26 208.103 749.108 208.211 748.763 208.77ZM766.594 227.097C752.772 239.039 742.472 249.088 745.613 247.566C748.539 246.148 785.675 224.419 786.417 223.69C787.139 222.982 779.751 219.613 777.475 219.613C776.255 219.613 771.358 222.981 766.594 227.097ZM801.784 517.627C801.743 524.179 799.865 531.189 797.733 532.747C796.707 533.499 793 534.471 789.496 534.909C780.861 535.987 780.556 537.404 788.777 538.264C792.513 538.654 796.42 539.3 797.459 539.699C799.223 540.375 801.071 546.828 802.132 556.017C802.67 560.68 803.777 557.859 804.72 549.42C805.762 540.113 807.097 538.741 815.716 538.117C819.674 537.832 823.167 537.186 823.477 536.684C823.788 536.181 820.919 535.407 817.102 534.965C813.285 534.521 809.307 533.534 808.264 532.771C806.199 531.261 804.225 524.289 804.181 518.351C804.166 516.297 803.626 514.291 802.983 513.894C802.283 513.461 801.801 514.96 801.784 517.627ZM739.444 516.505C739.162 516.999 738.556 519.477 738.098 522.012C736.684 529.829 728.265 556.132 722.205 571.661C699.869 628.9 652.212 684.189 594.376 719.965C565.388 737.894 544.074 747.117 504.005 759.064C464.617 770.807 403.526 773.963 358.904 766.558C283.887 754.109 215.892 719.765 164.603 668.416C139.065 642.848 127.672 627.761 102.697 586.44C88.3955 562.778 84.5 557.046 84.5 559.663C84.5 562.652 102.883 597.454 113.168 613.937C146.327 667.077 193.381 709.966 250.079 738.726C285.35 756.617 318.244 767.42 358.904 774.464C372.5 776.82 378.094 777.104 411.562 777.133C436.108 777.155 453.038 776.634 460.709 775.619C492.963 771.357 533.759 759.495 563.688 745.68C616.266 721.41 666.362 679.147 699.047 631.489C718.91 602.526 733.703 571.009 742.435 539.051C747.223 521.523 747.232 521.316 743.339 518.26C741.48 516.801 739.727 516.012 739.444 516.505ZM174.825 604.607C165.621 610.217 165.265 624.394 174.152 631.386C178.237 634.599 189.518 634.834 193.189 631.781C197.298 628.366 194.748 626.437 189.071 628.668C184.848 630.327 183.929 630.335 180.137 628.751C174.638 626.454 172.328 619.524 174.846 612.885C177.283 606.464 183.404 605 192.448 608.675C195.396 609.873 195.197 605.034 192.233 603.447C188.399 601.396 179.072 602.017 174.825 604.607ZM209.118 604.592C208.707 605.887 208.742 612.995 209.198 620.388C209.94 632.426 210.253 633.829 212.207 633.829C214.071 633.829 214.389 632.893 214.389 627.393C214.389 618.821 216.948 618.834 222.921 627.438C226.258 632.241 228.074 633.829 230.235 633.829C231.817 633.829 233.111 633.505 233.111 633.108C233.111 632.711 231.268 629.876 229.016 626.808C224.419 620.547 224.168 619.788 226.694 619.788C229.578 619.788 232.438 612.507 231.117 608.527C229.616 604 225.759 602.274 217.1 602.254C210.87 602.239 209.762 602.563 209.118 604.592ZM245.983 633.829H255.804C263.114 633.829 265.786 633.412 266.25 632.201C266.727 630.96 265.088 630.382 259.355 629.768L251.834 628.962V619.788H257.685C262.106 619.788 263.536 619.358 263.536 618.033C263.536 616.707 262.106 616.277 257.685 616.277H251.834V607.034L258.551 606.683C263.849 606.405 265.35 605.899 265.658 604.284C266.005 602.463 264.939 602.236 256.015 602.236H245.983V633.829ZM287.409 606.624C284.202 614.026 276.407 633.023 276.407 633.437C276.407 633.652 277.69 633.829 279.257 633.829C281.452 633.829 282.447 632.887 283.588 629.734C285.027 625.753 285.242 625.638 291.288 625.638C297.245 625.638 297.591 625.811 299.461 629.734C300.863 632.672 302.179 633.829 304.123 633.829C305.612 633.829 306.832 633.605 306.832 633.332C306.832 633.058 304.154 625.949 300.884 617.535C295.547 603.811 294.646 602.236 292.123 602.236C289.992 602.236 288.851 603.299 287.409 606.624ZM314.069 604.284C314.352 605.775 315.798 606.429 319.381 606.69C323.974 607.023 324.354 607.318 325.063 611.097C325.481 613.325 325.47 618.443 325.038 622.47C324.135 630.911 324.9 633.829 328.02 633.829C330.065 633.829 330.235 632.796 330.235 620.373V606.917H335.501C339.986 606.917 340.767 606.57 340.767 604.576C340.767 602.371 339.986 602.236 327.224 602.236C314.959 602.236 313.718 602.429 314.069 604.284ZM353.638 618.033C353.638 633.913 353.651 633.99 356.271 633.618C358.848 633.252 358.904 632.916 358.904 618.033C358.904 603.149 358.848 602.813 356.271 602.447C353.651 602.075 353.638 602.152 353.638 618.033ZM371.67 604.19C372.109 605.369 374.946 612.54 377.973 620.128C383.024 632.786 383.711 633.897 386.305 633.584C388.712 633.294 389.972 631.249 394.798 619.802C402.482 601.573 402.327 602.236 398.893 602.236C396.328 602.236 395.498 603.548 391.289 614.23L386.563 626.223L384.711 621.831C383.692 619.416 381.631 614.15 380.132 610.13C377.772 603.803 376.967 602.77 374.137 602.435C371.39 602.111 370.997 602.391 371.67 604.19ZM413.887 613.158C413.433 619.214 413.428 626.344 413.877 629L414.693 633.829H424.622C433.447 633.829 434.509 633.601 434.161 631.781C433.849 630.138 432.327 629.665 426.47 629.385L419.168 629.037V619.788H425.019C429.341 619.788 430.869 619.345 430.869 618.097C430.869 616.909 429.214 616.3 425.311 616.049C419.821 615.697 419.748 615.64 419.394 611.362L419.033 607.031L426.415 606.681C432.04 606.415 433.795 605.914 433.795 604.576C433.795 603.188 431.804 602.751 424.253 602.483L414.712 602.145L413.887 613.158ZM467.677 605.109C462.148 610.636 464.915 616.679 474.682 620.409C478.743 621.959 480.016 623.05 480.016 624.978C480.016 630.209 474.695 631.964 469.618 628.408C467.332 626.807 466.725 626.759 465.866 628.115C464.266 630.644 465.227 631.96 469.783 633.479C478.052 636.235 485.867 631.788 485.867 624.328C485.867 619.516 484.939 618.642 475.921 614.96C472.314 613.487 471.24 612.413 471.24 610.275C471.24 608.009 471.927 607.435 474.989 607.139C477.051 606.94 479.823 607.358 481.15 608.067C483.072 609.095 483.704 608.988 484.261 607.537C485.508 604.285 482.435 602.236 476.309 602.236C471.754 602.236 469.948 602.836 467.677 605.109ZM496.399 604.576C496.399 606.57 497.179 606.917 501.665 606.917H506.93V620.455C506.93 633.824 506.963 633.987 509.563 633.618C512.092 633.259 512.209 632.726 512.527 620.08L512.858 606.917H517.5C521.362 606.917 522.142 606.523 522.142 604.576C522.142 602.378 521.362 602.236 509.271 602.236C497.179 602.236 496.399 602.378 496.399 604.576ZM533.844 614.364C533.844 624.811 534.176 626.915 536.237 629.536C541.105 635.722 552.327 635.722 557.195 629.536C559.258 626.911 559.588 624.811 559.588 614.284C559.588 602.29 559.541 602.081 556.955 602.447C554.45 602.804 554.307 603.386 554.013 614.522C553.743 624.756 553.396 626.479 551.25 628.271C547.936 631.037 545.971 630.85 542.568 627.446C539.919 624.798 539.695 623.704 539.695 613.405C539.695 602.271 539.686 602.236 536.77 602.236H533.844V614.364ZM573.63 633.829L582.114 633.824C591.951 633.82 596.923 631.509 600.032 625.497C603.051 619.658 601.802 611.145 597.258 606.602C593.908 603.251 592.936 602.956 583.639 602.468L573.63 601.943V633.829ZM615.095 603.767C614.772 604.609 614.657 611.585 614.84 619.271C615.159 632.755 615.263 633.257 617.804 633.618C620.422 633.989 620.437 633.911 620.437 618.115C620.437 602.935 620.332 602.236 618.06 602.236C616.752 602.236 615.418 602.925 615.095 603.767ZM641.222 604.067C631.807 609.176 631.96 627.141 641.461 632.054C643.35 633.03 647.605 633.829 650.919 633.829C656.185 633.829 657.437 633.338 660.832 629.943C667.766 623.009 667.428 611.404 660.111 605.248C657.251 602.841 655.317 602.246 650.478 602.283C647.149 602.309 642.983 603.111 641.222 604.067ZM214.614 611.89C214.939 616.38 215.295 616.899 218.295 617.243C224.001 617.896 228.283 611.918 224.686 608.321C223.914 607.548 221.25 606.917 218.768 606.917H214.254L214.614 611.89ZM579.481 630.319H582.444C584.074 630.319 587.201 629.569 589.396 628.652C592.569 627.327 593.65 625.999 594.685 622.158C597.073 613.289 592.832 606.917 584.543 606.917H579.481V630.319ZM642.755 610C638.262 615.711 640.315 626.719 646.341 629.215C654.615 632.642 661.736 623.906 658.989 613.702C657.635 608.675 655.116 606.917 649.267 606.917C646.246 606.917 644.548 607.72 642.755 610ZM290.169 612.869C286.337 621.896 286.356 622.128 290.887 622.128C293.144 622.128 295.217 621.734 295.491 621.25C295.764 620.767 295.08 617.74 293.969 614.522L291.951 608.672L290.169 612.869Z" fill="black"/>
<path fill-rule="evenodd" clip-rule="evenodd" d="M379.382 86.3553C315.963 91.9542 258.211 113.112 207.953 149.158C194.168 159.045 187.223 164.933 171.797 179.815C160.996 190.232 140.668 213.652 140.668 215.675C140.668 216.018 143.695 213.589 147.396 210.277C189.563 172.554 221.453 150.02 260.051 130.673C322.889 99.1749 397.194 87.1299 468.315 96.9131C509.581 102.589 544.73 113.271 579.65 130.749C615.422 148.653 651.364 176.176 674.338 203.257C680.332 210.322 685.434 216.103 685.676 216.103C686.682 216.103 671.328 197.129 662.227 187.124C615.826 136.123 544.256 100.109 467.73 89.2478C439.23 85.2039 405.087 84.0853 379.382 86.3553ZM160.704 94.5518C160.625 94.9497 159.745 99.9519 158.748 105.668C156.384 119.221 155.264 120.808 146.844 122.507C130.573 125.789 131.078 125.513 139.498 126.521C148.711 127.627 154.104 129.708 155.757 132.797C156.437 134.066 157.799 139.731 158.786 145.385C159.772 151.04 160.734 155.822 160.925 156.013C161.116 156.203 161.928 151.822 162.73 146.277C164.323 135.261 166.432 130 169.617 129.097C181.655 125.681 196.467 125.169 199.366 128.067C200.068 128.769 201.278 132.147 202.054 135.573L203.464 141.802L204.269 135.781C205.18 128.974 206.798 127.15 212.987 125.946C217.259 125.115 217.267 125.103 213.641 124.97C207.916 124.76 204.901 121.553 204.119 114.844L203.443 109.039L202.187 115.439C200.366 124.724 198.067 125.76 183.399 123.907C177.197 123.125 170.631 121.711 168.807 120.769C165.258 118.933 163.856 114.921 161.848 100.848C161.297 96.9868 160.782 94.154 160.704 94.5518ZM709.662 182.149C703.709 185.983 698.838 189.418 698.838 189.782C698.838 192.256 726.527 259.768 727.732 260.23C730.174 261.167 792.453 225.133 792.448 222.785C792.445 222.006 788.628 214.595 783.964 206.315L775.484 191.262L761.442 186.04C746.028 180.309 727.985 175.15 723.411 175.166C721.802 175.172 715.615 178.315 709.662 182.149ZM722.19 183.048C721.259 185.462 720.32 187.83 720.102 188.313C719.341 189.999 722.352 189.163 730.165 185.518L738.038 181.845L733.358 180.342C725.516 177.826 724.068 178.177 722.19 183.048ZM712.581 183.997C708.884 186.309 705.859 188.621 705.859 189.135C705.859 189.95 711.344 191.531 714.173 191.531C715.433 191.531 720.165 182.377 719.67 180.894C719.468 180.287 716.278 181.685 712.581 183.997ZM732.188 187.354C727.039 189.553 722.826 192.029 722.826 192.855C722.826 193.714 728.286 196.272 735.568 198.822L748.311 203.286L758.073 199.601C767.727 195.957 771.376 193.555 769.253 192.242C766.698 190.664 748.263 184.247 745.059 183.822C742.82 183.525 738.159 184.804 732.188 187.354ZM704.175 194.199C705.239 197.689 712.208 215.882 716.436 226.206C718.316 230.797 720.407 236.004 721.081 237.777C721.755 239.55 722.577 240.73 722.907 240.4C723.917 239.39 716.081 195.09 714.882 195.028C714.746 195.021 712.104 194.248 709.009 193.309C703.403 191.608 703.386 191.612 704.175 194.199ZM718.734 198.181C718.747 205.098 728.231 253.876 729.346 252.754C730.287 251.807 745.644 208.463 745.644 206.755C745.644 206.274 740.773 204.032 734.82 201.772C718.924 195.735 718.729 195.692 718.734 198.181ZM771.051 196.939C770.651 197.339 771.718 200.366 773.423 203.667C776.865 210.327 778.237 208.944 776.092 200.98C774.923 196.64 772.94 195.049 771.051 196.939ZM759.726 201.39C756.209 202.916 753.186 204.613 753.011 205.16C752.632 206.343 772.399 213.142 773.376 212.166C774.569 210.973 769.674 199.174 767.868 198.891C766.909 198.74 763.244 199.864 759.726 201.39ZM779.593 207.912C779.568 209.521 779.229 212.023 778.841 213.473C778.252 215.669 778.834 216.4 782.33 217.861C789.245 220.75 789.354 220.235 783.705 211.369C780.253 205.951 779.632 205.429 779.593 207.912ZM745.746 214.64C738.536 233.521 732.718 250.625 733.02 252.051C733.216 252.985 741.566 246.271 753.027 235.963C763.845 226.233 772.495 217.652 772.251 216.895C771.785 215.457 753.475 208.036 750.198 207.958C748.968 207.928 747.425 210.242 745.746 214.64ZM773.566 220.499C769.007 223.51 739.684 250.316 740.287 250.919C740.942 251.573 787.771 224.078 787.771 223.039C787.771 222.372 778.688 218.43 777.2 218.451C776.9 218.455 775.264 219.377 773.566 220.499ZM736.887 528.883C724.119 576.414 706.303 612.085 677.458 647.87C664.334 664.152 638.2 689.344 621.563 701.752C581.132 731.906 545.531 749.036 498.747 760.852C440.447 775.576 384.657 775.173 323.214 759.585C280.345 748.709 232.836 725.292 196.114 696.936C181.476 685.634 156.287 661.513 142.931 646.01C129.482 630.401 110.755 602.216 91.1407 568.072C89.4042 565.048 87.4523 562.246 86.8052 561.846C83.8927 560.046 98.0751 588 110.914 609.364C136.781 652.41 172.857 689.907 215.121 717.675C278.303 759.186 349.18 779.505 423.263 777.344C460.965 776.244 489.931 771.419 523.235 760.691C629.429 726.483 712.879 642.362 741.398 540.774C746.213 523.621 746.397 521.091 742.982 518.855L740.09 516.958L736.887 528.883ZM801.812 522.638C801.812 524.627 801.059 528.058 800.138 530.261C798.628 533.874 797.883 534.346 792.554 535.053C786.091 535.909 785.569 537.881 791.805 537.881C797.881 537.881 800.536 540.883 801.635 548.997L802.586 556.017L803.467 551.337C804.927 543.594 806.519 539.292 808.156 538.663C809.008 538.336 812.273 537.657 815.412 537.154L821.12 536.239L814.955 535.431C807.026 534.389 805.537 533.038 804.608 526.03C803.742 519.502 801.812 517.161 801.812 522.638ZM177.429 603.899C171.645 606.418 168.752 611.024 168.752 617.718C168.752 624.858 171.402 629.643 176.765 632.188C181.552 634.46 190.289 633.857 193.084 631.062C195.584 628.562 194.359 627.644 190.487 629.116C181.384 632.576 174.644 628.465 173.724 618.895C173.194 613.378 173.443 612.576 176.709 609.311C180.765 605.255 185.504 604.668 191.044 607.532C194.29 609.21 194.496 609.182 194.496 607.062C194.496 602.811 184.277 600.917 177.429 603.899ZM210.212 603.781C209.892 604.615 209.779 611.585 209.962 619.271C210.234 630.764 210.604 633.244 212.048 633.244C213.32 633.244 213.965 631.499 214.389 626.9C214.71 623.409 215.591 620.352 216.347 620.104C217.102 619.856 219.897 622.534 222.555 626.055C227.077 632.042 230.345 634.646 231.674 633.315C231.987 633.003 230.381 629.963 228.106 626.56C224.329 620.909 224.157 620.303 226.124 619.561C231.191 617.651 232.546 608.079 228.138 605.328C224.357 602.969 210.967 601.813 210.212 603.781ZM319.411 603.096C313.275 603.727 313.915 605.747 320.251 605.747H325.481L325.809 619.495C326.081 630.79 326.453 633.244 327.895 633.244C329.336 633.244 329.708 630.79 329.98 619.495L330.309 605.747H335.538C338.413 605.747 340.767 605.22 340.767 604.576C340.767 603.928 337.678 603.406 333.842 603.406C330.033 603.406 326.214 603.235 325.358 603.025C324.5 602.815 321.825 602.848 319.411 603.096ZM471.825 603.066C466.41 605.057 464.23 611.192 467.437 615.416C468.242 616.475 471.412 618.405 474.483 619.703C480.728 622.347 482.005 624.263 480.005 628.001C478.893 630.079 477.856 630.452 474.356 630.037C471.999 629.756 469.148 629.123 468.022 628.628C465.104 627.345 465.304 631.048 468.238 632.618C473.873 635.633 482.552 633.156 484.724 627.913C486.847 622.79 485.163 619.871 478.261 616.711C474.849 615.151 471.47 613.164 470.751 612.298C467.466 608.339 474.013 604.236 479.573 606.768C483.295 608.465 483.527 608.437 483.527 606.302C483.527 603.366 476.383 601.39 471.825 603.066ZM643.05 603.88C632.692 608.562 631.885 625.355 641.722 631.529C647.862 635.382 656.014 634.201 661.027 628.731C664.327 625.13 664.903 623.639 664.903 618.69C664.903 611.809 663.218 607.615 659.465 605.157C655.454 602.529 647.423 601.904 643.05 603.88ZM246.568 632.074L256.222 632.413C262.345 632.63 265.876 632.308 265.876 631.536C265.876 630.818 262.757 630.319 258.27 630.319H250.664V625.053C250.664 619.424 250.323 619.666 258.562 619.427C260.845 619.362 262.365 618.71 262.365 617.797C262.365 616.754 260.533 616.277 256.515 616.277H250.664V605.747H258.27C262.561 605.747 265.876 605.236 265.876 604.576C265.876 603.887 261.769 603.406 255.893 603.406H245.91L246.568 632.074ZM286.223 610.134C284.559 613.835 282.25 619.495 281.093 622.713C279.935 625.931 278.614 629.486 278.158 630.611C277.531 632.157 277.903 632.659 279.678 632.659C281.239 632.659 282.441 631.478 283.253 629.148C284.43 625.77 284.744 625.638 291.543 625.638C298.513 625.638 298.632 625.694 300.321 629.734C301.262 631.986 302.848 633.829 303.847 633.829C304.845 633.829 305.67 633.435 305.679 632.951C305.69 632.468 303.242 625.623 300.24 617.74C295.386 604.988 294.478 603.406 292.016 603.406C289.779 603.406 288.671 604.693 286.223 610.134ZM353.896 618.325C354.167 630.66 354.528 633.244 355.979 633.244C357.43 633.244 357.79 630.66 358.062 618.325C358.378 603.936 358.304 603.406 355.979 603.406C353.654 603.406 353.58 603.936 353.896 618.325ZM372.361 604.039C372.361 605.339 383.187 630.962 384.33 632.366C386.88 635.502 388.618 633.354 393.794 620.665C401.413 601.988 401.04 603.406 398.333 603.406C396.462 603.406 395.25 605.297 392.517 612.475C390.619 617.463 388.694 622.728 388.24 624.176C386.703 629.084 385.782 627.631 379.348 610.134C377.505 605.125 376.298 603.406 374.617 603.406C373.377 603.406 372.361 603.691 372.361 604.039ZM414.487 634.155L420.63 633.417C424.01 633.011 428.221 632.674 429.992 632.669C431.762 632.663 433.21 632.132 433.21 631.489C433.21 630.838 430.089 630.319 426.189 630.319H419.168V619.916L424.635 619.56C432.442 619.051 432.848 616.277 425.116 616.277H419.168V605.747H426.189C430.089 605.747 433.21 605.227 433.21 604.576C433.21 603.894 429.31 603.406 423.848 603.406H414.487V634.155ZM496.399 604.576C496.399 605.22 498.752 605.747 501.627 605.747H506.857L507.185 619.495C507.457 630.79 507.829 633.244 509.271 633.244C510.712 633.244 511.084 630.79 511.356 619.495L511.685 605.747H516.914C519.789 605.747 522.142 605.22 522.142 604.576C522.142 603.867 517.072 603.406 509.271 603.406C501.469 603.406 496.399 603.867 496.399 604.576ZM535.014 615.588C535.014 627.755 535.019 627.774 538.615 630.8C544.057 635.379 552.779 634.64 556.918 629.25C557.819 628.077 558.357 622.977 558.38 615.4C558.411 605.502 558.111 603.406 556.663 603.406C555.226 603.406 554.907 605.421 554.907 614.522C554.907 627.012 553.23 630.319 546.897 630.319C541.037 630.319 539.695 627.413 539.695 614.722C539.695 604.187 539.533 603.406 537.355 603.406C535.164 603.406 535.014 604.187 535.014 615.588ZM574.8 617.907C574.8 634.085 574.663 633.829 583.302 633.829C590.018 633.829 597.604 629.908 599.434 625.493C601.231 621.157 601.237 612.738 599.446 609.393C597.272 605.329 592.005 603.406 583.05 603.406H574.8V617.907ZM615.756 617.964C615.756 631.18 616.659 635.655 618.879 633.436C619.224 633.091 619.793 626.193 620.142 618.107C620.767 603.657 620.734 603.406 618.266 603.406C615.833 603.406 615.756 603.857 615.756 617.964ZM214.389 617.448H218.835C224.049 617.448 226.09 615.801 226.09 611.597C226.09 607.393 224.049 605.747 218.835 605.747H214.389V617.448ZM579.168 606.49C578.829 607.046 578.629 612.504 578.724 618.618L578.896 629.734L582.838 630.11C591.27 630.917 595.863 626.455 595.863 617.458C595.863 610.911 592.047 606.858 585.153 606.081C582.201 605.749 579.508 605.933 579.168 606.49ZM644.19 607.505C640.36 610.188 638.587 616.772 640.223 622.236C644.145 635.323 660.222 631.8 660.222 617.852C660.222 608.502 651.138 602.639 644.19 607.505ZM288.908 614.333C287.825 617.768 286.939 620.927 286.939 621.353C286.939 621.779 289.287 622.128 292.157 622.128H297.376L294.849 615.107C293.46 611.246 291.998 608.087 291.6 608.087C291.202 608.087 289.991 610.897 288.908 614.333Z" fill="black"/>
<path d="M684.58 160.409C685.752 159.552 686.785 155.697 686.808 152.094C686.817 150.627 687.082 149.803 687.467 150.041C687.82 150.259 688.117 151.362 688.125 152.492C688.15 155.757 689.235 159.591 690.371 160.422C690.945 160.841 693.132 161.384 695.231 161.628C697.33 161.871 698.908 162.297 698.737 162.573C698.566 162.849 696.645 163.205 694.469 163.362C689.729 163.705 688.995 164.459 688.422 169.577C687.903 174.218 687.295 175.769 686.999 173.205C686.415 168.152 685.399 164.603 684.429 164.231C683.858 164.012 681.709 163.657 679.654 163.443C675.134 162.97 675.301 162.19 680.05 161.597C681.977 161.357 684.015 160.822 684.58 160.409Z" fill="black"/>
<path d="M783.58 255.409C784.752 254.552 785.785 250.697 785.808 247.094C785.817 245.627 786.082 244.803 786.467 245.041C786.82 245.259 787.117 246.362 787.125 247.492C787.15 250.757 788.235 254.591 789.371 255.422C789.945 255.841 792.132 256.384 794.231 256.628C796.33 256.871 797.908 257.297 797.737 257.573C797.566 257.849 795.645 258.205 793.469 258.362C788.729 258.705 787.995 259.459 787.422 264.577C786.903 269.218 786.295 270.769 785.999 268.205C785.415 263.152 784.399 259.603 783.429 259.231C782.858 259.012 780.709 258.657 778.654 258.443C774.134 257.97 774.301 257.19 779.05 256.597C780.977 256.357 783.015 255.822 783.58 255.409Z" fill="black"/>
<path d="M766.58 499.409C767.752 498.552 768.785 494.697 768.808 491.094C768.817 489.627 769.082 488.803 769.467 489.041C769.82 489.259 770.117 490.362 770.125 491.492C770.15 494.757 771.235 498.591 772.371 499.422C772.945 499.841 775.132 500.384 777.231 500.628C779.33 500.871 780.908 501.297 780.737 501.573C780.566 501.849 778.645 502.205 776.469 502.362C771.729 502.705 770.995 503.459 770.422 508.577C769.903 513.218 769.295 514.769 768.999 512.205C768.415 507.152 767.399 503.603 766.429 503.231C765.858 503.012 763.709 502.657 761.654 502.443C757.134 501.97 757.301 501.19 762.05 500.597C763.977 500.357 766.015 499.822 766.58 499.409Z" fill="black"/>
<path d="M185.58 82.4087C186.752 81.5516 187.785 77.6966 187.808 74.0939C187.817 72.6268 188.082 71.8025 188.467 72.0406C188.82 72.2594 189.117 73.3623 189.125 74.4916C189.15 77.7571 190.235 81.5915 191.371 82.4216C191.945 82.8411 194.132 83.3842 196.231 83.628C198.33 83.8713 199.908 84.2966 199.737 84.5733C199.566 84.8493 197.645 85.2045 195.469 85.3615C190.729 85.7045 189.995 86.4593 189.422 91.5773C188.903 96.218 188.295 97.7694 187.999 95.2052C187.415 90.1521 186.399 86.6034 185.429 86.2315C184.858 86.0121 182.709 85.6569 180.654 85.4426C176.134 84.9697 176.301 84.1905 181.05 83.5972C182.977 83.3565 185.015 82.8218 185.58 82.4087Z" fill="black"/>
</svg>
